####
#
# OBJ File Generated by Meshlab
#
####
# Object cube.obj
#
# Vertices: 24
# Faces: 12
#
####
mtllib ./arm_2.obj.mtl

vn 0.000000 0.000000 1.000000
v -0.500000 -0.500000 0.500000
vn 0.000000 0.000000 1.000000
v 0.500000 -0.500000 0.500000
vn 0.000000 0.000000 1.000000
v -0.500000 0.500000 0.500000
vn 0.000000 0.000000 1.000000
v 0.500000 0.500000 0.500000
vn 0.000000 1.000000 0.000000
v -0.500000 0.500000 -0.500000
vn 0.000000 1.000000 0.000000
v 0.500000 0.500000 -0.500000
vn 0.000000 0.000000 -1.000000
v -0.500000 -0.500000 -0.500000
vn 0.000000 0.000000 -1.000000
v 0.500000 -0.500000 -0.500000
vn 0.000000 1.000000 0.000000
v -0.500000 0.500000 0.500000
vn 0.000000 1.000000 0.000000
v 0.500000 0.500000 0.500000
vn 0.000000 0.000000 -1.000000
v -0.500000 0.500000 -0.500000
vn 0.000000 0.000000 -1.000000
v 0.500000 0.500000 -0.500000
vn 0.000000 -1.000000 0.000000
v -0.500000 -0.500000 -0.500000
vn 0.000000 -1.000000 0.000000
v -0.500000 -0.500000 0.500000
vn 0.000000 -1.000000 0.000000
v 0.500000 -0.500000 0.500000
vn 0.000000 -1.000000 0.000000
v 0.500000 -0.500000 -0.500000
vn 1.000000 0.000000 0.000000
v 0.500000 -0.500000 0.500000
vn 1.000000 0.000000 0.000000
v 0.500000 0.500000 0.500000
vn 1.000000 0.000000 0.000000
v 0.500000 0.500000 -0.500000
vn 1.000000 0.000000 0.000000
v 0.500000 -0.500000 -0.500000
vn -1.000000 0.000000 0.000000
v -0.500000 -0.500000 -0.500000
vn -1.000000 0.000000 0.000000
v -0.500000 0.500000 -0.500000
vn -1.000000 0.000000 0.000000
v -0.500000 0.500000 0.500000
vn -1.000000 0.000000 0.000000
v -0.500000 -0.500000 0.500000
# 24 vertices, 0 vertices normals


usemtl material_0
vt 0.000000 1.000000
vt 0.000000 0.000000
vt 1.000000 1.000000
f 3/1/3 1/2/1 4/3/4
vt 1.000000 0.000000
f 4/3/4 1/2/1 2/4/2
f 5/1/5 9/2/9 6/3/6
f 6/3/6 9/2/9 10/4/10
f 7/1/7 11/2/11 8/3/8
f 8/3/8 11/2/11 12/4/12
f 14/1/14 13/2/13 15/3/15
f 15/3/15 13/2/13 16/4/16
f 18/1/18 17/2/17 19/3/19
f 19/3/19 17/2/17 20/4/20
f 22/1/22 21/2/21 23/3/23
f 23/3/23 21/2/21 24/4/24
# 12 faces, 4 coords texture

# End of File
