####
#
# OBJ File Generated by Meshlab
#
####
# Object cylinder.obj
#
# Vertices: 88
# Faces: 80
#
####
mtllib ./cylinder.obj.mtl

vn 0.951057 0.000000 -0.309016
v 0.475529 -1.000000 -0.154509
vn 0.809017 0.000000 -0.587785
v 0.404509 -1.000000 -0.293893
vn 0.587785 0.000000 -0.809017
v 0.293893 -1.000000 -0.404509
vn 0.309017 0.000000 -0.951056
v 0.154509 -1.000000 -0.475529
vn 0.000000 0.000000 -1.000000
v 0.000000 -1.000000 -0.500000
vn -0.309017 0.000000 -0.951056
v -0.154509 -1.000000 -0.475529
vn -0.587785 0.000000 -0.809017
v -0.293893 -1.000000 -0.404509
vn -0.809017 0.000000 -0.587785
v -0.404509 -1.000000 -0.293893
vn -0.951056 0.000000 -0.309017
v -0.475528 -1.000000 -0.154509
vn -1.000000 0.000000 0.000000
v -0.500000 -1.000000 0.000000
vn -0.951056 0.000000 0.309017
v -0.475528 -1.000000 0.154509
vn -0.809017 0.000000 0.587785
v -0.404509 -1.000000 0.293893
vn -0.587785 0.000000 0.809017
v -0.293893 -1.000000 0.404509
vn -0.309017 0.000000 0.951056
v -0.154509 -1.000000 0.475528
vn 0.000000 0.000000 1.000000
v -0.000000 -1.000000 0.500000
vn 0.309017 0.000000 0.951056
v 0.154509 -1.000000 0.475528
vn 0.587785 0.000000 0.809017
v 0.293893 -1.000000 0.404509
vn 0.809017 0.000000 0.587785
v 0.404509 -1.000000 0.293893
vn 0.951056 0.000000 0.309017
v 0.475528 -1.000000 0.154509
vn 1.000000 0.000000 0.000000
v 0.500000 -1.000000 0.000000
vn 0.951057 0.000000 -0.309016
v 0.475529 1.000000 -0.154509
vn 0.809017 0.000000 -0.587785
v 0.404509 1.000000 -0.293893
vn 0.587785 0.000000 -0.809017
v 0.293893 1.000000 -0.404509
vn 0.309017 0.000000 -0.951056
v 0.154509 1.000000 -0.475529
vn 0.000000 0.000000 -1.000000
v 0.000000 1.000000 -0.500000
vn -0.309017 0.000000 -0.951056
v -0.154509 1.000000 -0.475529
vn -0.587785 0.000000 -0.809017
v -0.293893 1.000000 -0.404509
vn -0.809017 0.000000 -0.587785
v -0.404509 1.000000 -0.293893
vn -0.951056 0.000000 -0.309017
v -0.475528 1.000000 -0.154509
vn -1.000000 0.000000 0.000000
v -0.500000 1.000000 0.000000
vn -0.951056 0.000000 0.309017
v -0.475528 1.000000 0.154509
vn -0.809017 0.000000 0.587785
v -0.404509 1.000000 0.293893
vn -0.587785 0.000000 0.809017
v -0.293893 1.000000 0.404509
vn -0.309017 0.000000 0.951056
v -0.154509 1.000000 0.475528
vn 0.000000 0.000000 1.000000
v -0.000000 1.000000 0.500000
vn 0.309017 0.000000 0.951056
v 0.154509 1.000000 0.475528
vn 0.587785 0.000000 0.809017
v 0.293893 1.000000 0.404509
vn 0.809017 0.000000 0.587785
v 0.404509 1.000000 0.293893
vn 0.951056 0.000000 0.309017
v 0.475528 1.000000 0.154509
vn 1.000000 0.000000 0.000000
v 0.500000 1.000000 0.000000
vn 0.000000 -1.000000 0.000000
v 0.000000 -1.000000 0.000000
vn 0.000000 1.000000 0.000000
v 0.000000 1.000000 0.000000
vn -1.000000 0.000000 0.000000
v -0.500000 -1.000000 0.000000
vn -1.000000 0.000000 0.000000
v -0.500000 1.000000 0.000000
vn 1.000000 0.000000 0.000000
v 0.500000 -1.000000 0.000000
vn 1.000000 0.000000 0.000000
v 0.500000 1.000000 0.000000
vn 0.951057 0.000000 -0.309016
v 0.475529 1.000000 -0.154509
vn 0.951057 0.000000 -0.309016
v 0.475529 -1.000000 -0.154509
vn 0.000000 -1.000000 0.000000
v 0.404509 -1.000000 -0.293893
vn 0.000000 -1.000000 0.000000
v 0.475529 -1.000000 -0.154509
vn 0.000000 -1.000000 0.000000
v 0.293893 -1.000000 -0.404509
vn 0.000000 -1.000000 0.000000
v 0.154509 -1.000000 -0.475529
vn 0.000000 -1.000000 0.000000
v 0.000000 -1.000000 -0.500000
vn 0.000000 -1.000000 0.000000
v -0.154509 -1.000000 -0.475529
vn 0.000000 -1.000000 0.000000
v -0.293893 -1.000000 -0.404509
vn 0.000000 -1.000000 0.000000
v -0.404509 -1.000000 -0.293893
vn 0.000000 -1.000000 0.000000
v -0.475528 -1.000000 -0.154509
vn 0.000000 -1.000000 0.000000
v -0.500000 -1.000000 0.000000
vn 0.000000 -1.000000 0.000000
v -0.475528 -1.000000 0.154509
vn 0.000000 -1.000000 0.000000
v -0.404509 -1.000000 0.293893
vn 0.000000 -1.000000 0.000000
v -0.293893 -1.000000 0.404509
vn 0.000000 -1.000000 0.000000
v -0.154509 -1.000000 0.475528
vn 0.000000 -1.000000 0.000000
v -0.000000 -1.000000 0.500000
vn 0.000000 -1.000000 0.000000
v 0.154509 -1.000000 0.475528
vn 0.000000 -1.000000 0.000000
v 0.293893 -1.000000 0.404509
vn 0.000000 -1.000000 0.000000
v 0.404509 -1.000000 0.293893
vn 0.000000 -1.000000 0.000000
v 0.475528 -1.000000 0.154509
vn 0.000000 -1.000000 0.000000
v 0.500000 -1.000000 0.000000
vn 0.000000 1.000000 0.000000
v 0.475529 1.000000 -0.154509
vn 0.000000 1.000000 0.000000
v 0.404509 1.000000 -0.293893
vn 0.000000 1.000000 0.000000
v 0.293893 1.000000 -0.404509
vn 0.000000 1.000000 0.000000
v 0.154509 1.000000 -0.475529
vn 0.000000 1.000000 0.000000
v 0.000000 1.000000 -0.500000
vn 0.000000 1.000000 0.000000
v -0.154509 1.000000 -0.475529
vn 0.000000 1.000000 0.000000
v -0.293893 1.000000 -0.404509
vn 0.000000 1.000000 0.000000
v -0.404509 1.000000 -0.293893
vn 0.000000 1.000000 0.000000
v -0.475528 1.000000 -0.154509
vn 0.000000 1.000000 0.000000
v -0.500000 1.000000 0.000000
vn 0.000000 1.000000 0.000000
v -0.475528 1.000000 0.154509
vn 0.000000 1.000000 0.000000
v -0.404509 1.000000 0.293893
vn 0.000000 1.000000 0.000000
v -0.293893 1.000000 0.404509
vn 0.000000 1.000000 0.000000
v -0.154509 1.000000 0.475528
vn 0.000000 1.000000 0.000000
v -0.000000 1.000000 0.500000
vn 0.000000 1.000000 0.000000
v 0.154509 1.000000 0.475528
vn 0.000000 1.000000 0.000000
v 0.293893 1.000000 0.404509
vn 0.000000 1.000000 0.000000
v 0.404509 1.000000 0.293893
vn 0.000000 1.000000 0.000000
v 0.475528 1.000000 0.154509
vn 0.000000 1.000000 0.000000
v 0.500000 1.000000 0.000000
# 88 vertices, 0 vertices normals


usemtl material_0
vt 0.100600 0.999431
vt 0.100600 0.000454
vt 0.200505 0.999431
f 21/1/21 1/2/1 22/3/22
vt 0.200505 0.000454
f 22/3/22 1/2/1 2/4/2
vt 0.300411 0.999431
f 22/3/22 2/4/2 23/5/23
vt 0.300411 0.000454
f 23/5/23 2/4/2 3/6/3
vt 0.400317 0.999431
f 23/5/23 3/6/3 24/7/24
vt 0.400317 0.000454
f 24/7/24 3/6/3 4/8/4
vt 0.500222 0.999431
f 24/7/24 4/8/4 25/9/25
vt 0.500222 0.000454
f 25/9/25 4/8/4 5/10/5
vt 0.600127 0.999431
f 25/9/25 5/10/5 26/11/26
vt 0.600127 0.000454
f 26/11/26 5/10/5 6/12/6
vt 0.700033 0.999431
f 26/11/26 6/12/6 27/13/27
vt 0.700033 0.000454
f 27/13/27 6/12/6 7/14/7
vt 0.799938 0.999431
f 27/13/27 7/14/7 28/15/28
vt 0.799938 0.000454
f 28/15/28 7/14/7 8/16/8
vt 0.899844 0.999431
f 28/15/28 8/16/8 29/17/29
vt 0.899843 0.000454
f 29/17/29 8/16/8 9/18/9
vt 0.999749 0.999431
f 29/17/29 9/18/9 30/19/30
vt 0.999749 0.000454
f 30/19/30 9/18/9 10/20/10
vt 0.000694 0.999431
vt 0.000694 0.000454
f 44/21/44 43/22/43 31/1/31
vt 0.100599 0.000454
f 31/1/31 43/22/43 11/23/11
vt 0.200505 0.999431
f 31/1/31 11/23/11 32/24/32
vt 0.200505 0.000454
f 32/24/32 11/23/11 12/25/12
vt 0.300411 0.999431
f 32/24/32 12/25/12 33/26/33
vt 0.300411 0.000454
f 33/26/33 12/25/12 13/27/13
vt 0.400316 0.999431
f 33/26/33 13/27/13 34/28/34
vt 0.400316 0.000454
f 34/28/34 13/27/13 14/29/14
vt 0.500221 0.999431
f 34/28/34 14/29/14 35/30/35
vt 0.500221 0.000454
f 35/30/35 14/29/14 15/31/15
vt 0.600127 0.999431
f 35/30/35 15/31/15 36/32/36
vt 0.600127 0.000454
f 36/32/36 15/31/15 16/33/16
vt 0.700032 0.999431
f 36/32/36 16/33/16 37/34/37
vt 0.700032 0.000454
f 37/34/37 16/33/16 17/35/17
vt 0.799937 0.999431
f 37/34/37 17/35/17 38/36/38
vt 0.799937 0.000454
f 38/36/38 17/35/17 18/37/18
vt 0.899842 0.999431
f 38/36/38 18/37/18 39/38/39
vt 0.899843 0.000454
f 39/38/39 18/37/18 19/39/19
vt 0.999748 0.999431
f 39/38/39 19/39/19 40/40/40
vt 0.999748 0.000454
f 40/40/40 19/39/19 20/41/20
vt 0.000694 0.999431
vt 0.000694 0.000454
f 46/42/46 45/43/45 47/1/47
f 47/1/47 45/43/45 48/2/48
vt 0.500224 0.499944
vt 0.098857 0.791554
vt 0.028389 0.653252
f 41/44/41 49/45/49 50/46/50
vt 0.208614 0.901311
f 41/44/41 51/47/51 49/45/49
vt 0.346915 0.971779
f 41/44/41 52/48/52 51/47/51
vt 0.500224 0.996061
f 41/44/41 53/49/53 52/48/52
vt 0.653533 0.971779
f 41/44/41 54/50/54 53/49/53
vt 0.791834 0.901311
f 41/44/41 55/51/55 54/50/54
vt 0.901591 0.791554
f 41/44/41 56/52/56 55/51/55
vt 0.972059 0.653252
f 41/44/41 57/53/57 56/52/56
vt 0.996341 0.499944
f 41/44/41 58/54/58 57/53/57
vt 0.972059 0.346635
f 41/44/41 59/55/59 58/54/58
vt 0.901590 0.208334
f 41/44/41 60/56/60 59/55/59
vt 0.791834 0.098578
f 41/44/41 61/57/61 60/56/60
vt 0.653532 0.028109
f 41/44/41 62/58/62 61/57/61
vt 0.500223 0.003828
f 41/44/41 63/59/63 62/58/62
vt 0.346915 0.028110
f 41/44/41 64/60/64 63/59/63
vt 0.208614 0.098578
f 41/44/41 65/61/65 64/60/64
vt 0.098857 0.208335
f 41/44/41 66/62/66 65/61/65
vt 0.028389 0.346636
f 41/44/41 67/63/67 66/62/66
vt 0.004108 0.499944
f 41/44/41 68/64/68 67/63/67
f 41/44/41 50/46/50 68/64/68
vt 0.500224 0.499944
vt 0.972060 0.653252
vt 0.901591 0.791554
f 42/65/42 69/66/69 70/67/70
vt 0.791835 0.901311
f 42/65/42 70/67/70 71/68/71
vt 0.653533 0.971779
f 42/65/42 71/68/71 72/69/72
vt 0.500224 0.996061
f 42/65/42 72/69/72 73/70/73
vt 0.346916 0.971779
f 42/65/42 73/70/73 74/71/74
vt 0.208614 0.901311
f 42/65/42 74/71/74 75/72/75
vt 0.098858 0.791554
f 42/65/42 75/72/75 76/73/76
vt 0.028390 0.653252
f 42/65/42 76/73/76 77/74/77
vt 0.004108 0.499944
f 42/65/42 77/74/77 78/75/78
vt 0.028390 0.346636
f 42/65/42 78/75/78 79/76/79
vt 0.098858 0.208334
f 42/65/42 79/76/79 80/77/80
vt 0.208614 0.098578
f 42/65/42 80/77/80 81/78/81
vt 0.346916 0.028109
f 42/65/42 81/78/81 82/79/82
vt 0.500224 0.003828
f 42/65/42 82/79/82 83/80/83
vt 0.653533 0.028109
f 42/65/42 83/80/83 84/81/84
vt 0.791834 0.098578
f 42/65/42 84/81/84 85/82/85
vt 0.901591 0.208334
f 42/65/42 85/82/85 86/83/86
vt 0.972059 0.346636
f 42/65/42 86/83/86 87/84/87
vt 0.996341 0.499944
f 42/65/42 87/84/87 88/85/88
f 42/65/42 88/85/88 69/66/69
# 80 faces, 85 coords texture

# End of File
